<svg width="146" height="39" viewBox="0 0 146 39" fill="none" xmlns="http://www.w3.org/2000/svg">
<rect width="146" height="39"/>
<mask id="mask0_0_1" style="mask-type:luminance" maskUnits="userSpaceOnUse" x="0" y="0" width="49" height="38">
<path d="M49 0H0V38H49V0Z" fill="white"/>
</mask>
<g mask="url(#mask0_0_1)">
<path d="M48.8419 35.2797V38H18.94C14.6388 37.9997 10.4656 36.3208 7.10621 33.2392C3.74684 30.1577 1.4011 25.8567 0.45448 21.0431C0.43472 20.9411 0.414965 20.8504 0.405085 20.7767C0.395205 20.7201 0.385323 20.6634 0.380383 20.6067H0.375446V20.6011C0.380386 20.5954 0.375446 20.5954 0.375446 20.5954V20.5841C0.369269 20.5699 0.365892 20.5545 0.365564 20.5387C0.363696 20.5365 0.362287 20.5338 0.361433 20.5308C0.360579 20.5279 0.360304 20.5248 0.360626 20.5217C0.21574 19.6753 0.113472 18.82 0.0543406 17.96C0.0197604 17.4046 0 16.8379 0 16.2712C0 16.0048 -6.02698e-07 15.7384 0.0148194 15.4777C0.111616 13.0954 0.66664 10.7671 1.64009 8.65982C2.14093 10.0789 2.72519 11.4574 3.38885 12.7857C5.70601 17.4593 8.92932 21.4586 12.8095 24.4742C13.29 24.9519 13.8132 25.3698 14.3705 25.721C14.3754 25.7267 14.3754 25.7267 14.3804 25.7267C14.7304 25.9516 15.0935 26.1485 15.4672 26.3161C16.5708 26.8261 17.7502 27.0859 18.94 27.0812H39.3225V21.7311C39.3237 20.8777 39.2358 20.0272 39.0607 19.1978V19.1808C38.8075 17.9965 38.3816 16.8698 37.801 15.8484C37.4955 15.3059 37.1465 14.7975 36.7586 14.3295C40.3686 17.2839 43.3756 21.1031 45.5716 25.5226C47.0847 28.567 48.1873 31.8567 48.8419 35.2797Z" fill="url(#paint0_linear_0_1)"/>
<path d="M48.8421 21.7289V35.2796C48.1876 31.8558 47.085 28.5654 45.5718 25.5204C43.3758 21.1007 40.3687 17.2815 36.7588 14.3272C35.8817 13.2488 34.82 12.3896 33.6402 11.8036C32.4603 11.2175 31.1878 10.9171 29.9021 10.9211H14.178C12.9419 10.922 11.7567 11.4861 10.8831 12.4894C10.0095 13.4927 9.51903 14.853 9.51958 16.2711C9.51795 17.8298 9.81128 19.3703 10.3793 20.7861C10.9474 22.202 11.7766 23.4596 12.8096 24.4719C8.92974 21.4569 5.70643 17.4585 3.38902 12.7857C2.72536 11.4574 2.1411 10.0789 1.64026 8.65981C2.84554 6.04424 4.65007 3.85557 6.85943 2.32958C9.06875 0.803588 11.5992 -0.00186125 14.178 3.22963e-06H29.9021C34.1089 -0.000605382 38.1962 1.60553 41.5192 4.56507C44.8422 7.52462 47.2118 11.6691 48.2542 16.3448C48.2618 16.3627 48.2668 16.3818 48.269 16.4015C48.6512 18.1433 48.8437 19.9327 48.8421 21.7289Z" fill="url(#paint1_linear_0_1)"/>
<g style="mix-blend-mode:multiply" opacity="0.15">
<path d="M48.842 35.2797V38C48.842 38 48.432 30.9894 39.6388 24.7553C39.535 24.6816 39.4313 24.6079 39.3226 24.5342V21.7289C39.3238 20.8755 39.2358 20.025 39.0608 19.1955V19.1785C38.8075 17.9942 38.3817 16.8675 37.8011 15.8461C37.4956 15.3037 37.1466 14.7952 36.7587 14.3272C40.3686 17.2816 43.3757 21.1008 45.5717 25.5204C47.0849 28.5655 48.1875 31.8559 48.842 35.2797Z" fill="black"/>
</g>
<g style="mix-blend-mode:multiply" opacity="0.15">
<path d="M15.4672 26.3138C15.4672 26.3138 8.39308 26.1778 0.0543406 17.96C0.0197603 17.4046 0 16.8379 0 16.2712C0 16.0048 -6.02698e-07 15.7384 0.0148194 15.4777C0.111616 13.0954 0.66664 10.7671 1.64009 8.65982C2.14093 10.0789 2.72519 11.4574 3.38885 12.7857C5.70601 17.4593 8.92932 21.4586 12.8095 24.4742C13.29 24.9519 13.8132 25.3698 14.3705 25.721C14.3754 25.7267 14.3754 25.7267 14.3804 25.7267C14.7305 25.9508 15.0936 26.147 15.4672 26.3138Z" fill="black"/>
</g>
<g style="mix-blend-mode:multiply" opacity="0.3">
<path d="M0.37639 20.5954C0.37103 20.5828 0.367416 20.5694 0.365662 20.5557C0.371025 20.5614 0.371027 20.5727 0.37639 20.584V20.5954Z" fill="black"/>
</g>
<g style="mix-blend-mode:multiply" opacity="0.3">
<path d="M46.4954 38H18.94C14.6387 37.9997 10.4656 36.3208 7.10615 33.2392C3.74676 30.1577 1.40102 25.8567 0.454401 21.0431C0.43464 20.9411 0.414885 20.8504 0.405005 20.7768C0.392251 20.7208 0.382355 20.664 0.375366 20.6067V20.6011L0.380303 20.6067C0.409943 20.7144 0.459345 20.9014 0.528504 21.1735C0.670702 21.8001 0.843884 22.417 1.04721 23.0211C1.18553 23.4121 1.29915 23.8542 1.49181 24.3076C1.68447 24.761 1.88701 25.254 2.10931 25.7754C2.36619 26.2742 2.63789 26.8012 2.92935 27.3623C3.26033 27.8837 3.57155 28.4674 3.96181 29.0172C4.35718 29.5997 4.78106 30.156 5.23142 30.6834C5.4636 30.9554 5.70072 31.2331 5.93784 31.5165C6.19966 31.7715 6.46148 32.0379 6.72824 32.3043C6.86162 32.4346 6.99006 32.5763 7.12838 32.701C7.27658 32.82 7.41984 32.9447 7.5631 33.0637C7.8595 33.3074 8.14603 33.5681 8.45725 33.8005C9.08838 34.2733 9.7414 34.7066 10.4135 35.0983C11.1063 35.5022 11.8188 35.8598 12.5476 36.1695C13.3018 36.4613 14.0685 36.7092 14.8447 36.9119C15.627 37.1102 16.4187 37.2559 17.2159 37.3483L18.4707 37.4106C18.6683 37.422 18.9103 37.439 19.0733 37.4333H19.7007C21.3754 37.439 23.05 37.4446 24.7 37.456C26.35 37.4673 27.9703 37.4843 29.5412 37.5013C32.6781 37.541 35.6125 37.6033 38.122 37.677C40.6365 37.7393 42.7261 37.8413 44.1933 37.8923C45.6604 37.9626 46.4954 38 46.4954 38Z" fill="black"/>
</g>
<g style="mix-blend-mode:overlay" opacity="0.6">
<path d="M39.7326 27.5153L39.3226 27.5323C38.5075 27.572 37.6973 27.5777 36.8822 27.6003C36.0671 27.623 35.2569 27.6287 34.4468 27.6343C33.6366 27.64 32.8215 27.6513 32.0064 27.64C31.1913 27.6287 30.3811 27.6287 29.571 27.6117C27.9457 27.5777 26.3205 27.5267 24.6952 27.4416C23.0699 27.3566 21.4447 27.2546 19.8194 27.0789H39.3226V21.7289C39.3238 20.8755 39.2359 20.025 39.0608 19.1956V19.1786C39.2482 19.8115 39.379 20.4648 39.451 21.1281C39.5202 21.8026 39.535 22.4543 39.5745 23.1174C39.5992 23.6615 39.6239 24.2112 39.6387 24.7553C39.6733 25.5317 39.698 26.3025 39.7178 27.0789L39.7326 27.5153Z" fill="white"/>
</g>
<g style="mix-blend-mode:screen" opacity="0.4">
<path d="M48.2541 16.3448C48.1898 16.1578 48.0021 15.5797 47.7304 14.7013C47.5131 14.1742 47.2957 13.5224 46.9697 12.8197C46.8017 12.4683 46.6239 12.0943 46.4361 11.7032C46.2484 11.3122 46.0064 10.9324 45.7841 10.5187C45.5453 10.0911 45.2863 9.67864 45.0085 9.28322C44.8701 9.07353 44.7269 8.86383 44.5836 8.64847C44.4255 8.44444 44.2675 8.24042 44.1094 8.03072C43.9513 7.82103 43.7833 7.61133 43.6203 7.39597C43.4375 7.19761 43.2548 6.99925 43.072 6.79523C42.8892 6.5912 42.7064 6.38717 42.5187 6.18315C42.3211 5.99045 42.1186 5.79776 41.916 5.60506C41.7135 5.41237 41.5109 5.20835 41.2985 5.02699C41.0861 4.84564 40.8589 4.66994 40.6366 4.48858C40.2018 4.11453 39.7276 3.80849 39.2534 3.47978C38.2882 2.83373 37.2747 2.28751 36.2251 1.84756C35.6965 1.62654 35.1531 1.45652 34.6246 1.25817C34.0812 1.11648 33.5378 0.969122 32.9944 0.844439C32.451 0.770762 31.9273 0.663087 31.379 0.600746C30.8356 0.56674 30.2576 0.515737 29.7586 0.498735C27.5949 0.459063 25.5794 0.396706 23.8504 0.323029C22.1214 0.260688 20.6838 0.158689 19.6761 0.107683C18.6683 0.0566758 18.0903 1.72901e-07 18.0903 1.72901e-07H29.9019C34.1087 -0.000608436 38.196 1.60552 41.519 4.56506C44.842 7.52462 47.2116 11.6691 48.2541 16.3448Z" fill="white"/>
</g>
<g style="mix-blend-mode:multiply" opacity="0.3">
<path d="M49.0002 36.6455L48.8421 35.9087L48.7136 35.3137C48.2797 33.2418 47.6777 31.2211 46.9155 29.2779C46.545 28.3031 46.13 27.3566 45.6854 26.4272C45.4631 25.9568 45.226 25.509 44.9839 25.05C44.7419 24.5909 44.4949 24.1602 44.2281 23.7238C43.1895 21.9709 42.0121 20.3318 40.7108 18.8272C40.0686 18.0734 39.382 17.365 38.6854 16.6792C38.394 16.3958 38.1025 16.1181 37.8012 15.8461C37.4957 15.3037 37.1467 14.7952 36.7588 14.3272C35.8817 13.2488 34.82 12.3897 33.6402 11.8036C32.4603 11.2175 31.1878 10.9171 29.9021 10.9211H14.178C12.9419 10.922 11.7567 11.4862 10.8831 12.4895C10.0095 13.4928 9.51903 14.8531 9.51958 16.2712C9.51794 17.8298 9.81128 19.3703 10.3793 20.7862C10.9474 22.2021 11.7766 23.4596 12.8096 24.4719C13.2901 24.9496 13.8134 25.3675 14.3707 25.7187C13.7549 25.5003 13.1669 25.1896 12.6219 24.7949C11.3793 23.7972 10.2006 22.6987 9.09473 21.5078C8.54639 20.9128 8.00793 20.295 7.49911 19.6546C6.99029 19.0142 6.50617 18.3454 6.04181 17.6653C5.11728 16.2982 4.28179 14.8548 3.54216 13.3468C2.7999 11.8454 2.1639 10.278 1.64026 8.65982C2.24443 10.2324 2.94606 11.7533 3.73976 13.2108C4.52513 14.6663 5.40356 16.053 6.36785 17.3593C6.84703 18.0167 7.35585 18.6458 7.86961 19.2579C8.38337 19.87 8.92183 20.4594 9.47511 21.0318C9.82586 21.3945 10.1914 21.7402 10.557 22.0859C10.2134 21.4582 9.92703 20.7916 9.70236 20.0967C9.39899 19.187 9.20776 18.2333 9.13425 17.263C9.0231 16.2718 9.10753 15.2646 9.38125 14.3159C9.67672 13.3507 10.1875 12.4911 10.8627 11.8229C11.5379 11.1547 12.354 10.7011 13.2295 10.5074C13.4477 10.4572 13.6691 10.4269 13.8915 10.4167C14.0002 10.4111 14.0693 10.3997 14.2175 10.394H14.5189L15.7341 10.3884L18.1646 10.377L23.0206 10.3544L27.8767 10.377C28.6918 10.3884 29.4772 10.377 30.322 10.3997C31.171 10.4438 32.0114 10.6153 32.8216 10.9098C34.4336 11.4921 35.8881 12.5401 37.0453 13.9532C37.8012 14.5823 38.5273 15.2454 39.2338 15.9481C39.9473 16.6591 40.6283 17.412 41.274 18.2037C42.5702 19.7819 43.7377 21.4931 44.7616 23.3157C45.0185 23.7635 45.2655 24.2395 45.5026 24.6986C45.7398 25.1577 45.9719 25.6394 46.1844 26.1211C46.6191 27.0789 47.0192 28.0537 47.3749 29.0568C47.9369 30.6781 48.3926 32.3451 48.7383 34.0442C48.768 32.4063 48.8026 30.7741 48.8421 29.1362C48.8964 31.1821 48.9409 33.2337 48.9755 35.2797L49.0002 36.6455Z" fill="black"/>
</g>
</g>
<path d="M58.9482 23V12.0909H63.3161C64.1186 12.0909 64.788 12.2099 65.3242 12.4478C65.8604 12.6857 66.2635 13.016 66.5334 13.4386C66.8033 13.8576 66.9382 14.3406 66.9382 14.8874C66.9382 15.3136 66.853 15.6882 66.6825 16.0114C66.5121 16.331 66.2777 16.5937 65.9794 16.7997C65.6847 17.0021 65.3473 17.146 64.9673 17.2312V17.3377C65.3828 17.3555 65.7717 17.4727 66.1339 17.6893C66.4996 17.9059 66.7962 18.2095 67.0234 18.6001C67.2507 18.9872 67.3643 19.4489 67.3643 19.9851C67.3643 20.5639 67.2205 21.0806 66.9329 21.5352C66.6488 21.9862 66.228 22.343 65.6705 22.6058C65.1129 22.8686 64.4258 23 63.609 23H58.9482ZM61.2546 21.1143H63.1349C63.7777 21.1143 64.2464 20.9918 64.5412 20.7468C64.8359 20.4982 64.9833 20.168 64.9833 19.756C64.9833 19.4542 64.9105 19.1879 64.7649 18.957C64.6193 18.7262 64.4116 18.5451 64.1417 18.4137C63.8754 18.2823 63.5575 18.2166 63.1882 18.2166H61.2546V21.1143ZM61.2546 16.6559H62.9645C63.2805 16.6559 63.5611 16.6009 63.8061 16.4908C64.0547 16.3771 64.25 16.2173 64.392 16.0114C64.5376 15.8054 64.6104 15.5586 64.6104 15.271C64.6104 14.8768 64.4702 14.5589 64.1896 14.3175C63.9126 14.076 63.5185 13.9553 63.0071 13.9553H61.2546V16.6559ZM68.8651 23V12.0909H76.216V13.9925H71.1716V16.592H75.8378V18.4936H71.1716V21.0984H76.2373V23H68.8651ZM83.9677 15.2283C83.9251 14.7987 83.7422 14.4648 83.419 14.2269C83.0959 13.989 82.6573 13.87 82.1033 13.87C81.7269 13.87 81.4091 13.9233 81.1499 14.0298C80.8906 14.1328 80.6918 14.2766 80.5533 14.4613C80.4183 14.646 80.3509 14.8555 80.3509 15.0898C80.3438 15.2852 80.3846 15.4556 80.4734 15.6012C80.5657 15.7468 80.6918 15.8729 80.8516 15.9794C81.0114 16.0824 81.196 16.1729 81.4055 16.2511C81.6151 16.3256 81.8388 16.3896 82.0767 16.4428L83.0568 16.6772C83.5327 16.7837 83.9695 16.9258 84.3672 17.1033C84.7649 17.2809 85.1094 17.4993 85.4006 17.7585C85.6918 18.0178 85.9173 18.3232 86.0771 18.6747C86.2404 19.0263 86.3239 19.4293 86.3274 19.8839C86.3239 20.5515 86.1534 21.1303 85.8161 21.6204C85.4822 22.1069 84.9993 22.4851 84.3672 22.755C83.7386 23.0213 82.9805 23.1545 82.0927 23.1545C81.212 23.1545 80.445 23.0195 79.7915 22.7496C79.1417 22.4798 78.6339 22.0803 78.2681 21.5511C77.9059 21.0185 77.7159 20.3597 77.6982 19.5749H79.93C79.9549 19.9407 80.0597 20.2461 80.2443 20.4911C80.4325 20.7326 80.6829 20.9155 80.9954 21.0398C81.3114 21.1605 81.6683 21.2209 82.0661 21.2209C82.4567 21.2209 82.7958 21.1641 83.0835 21.0504C83.3746 20.9368 83.6001 20.7788 83.7599 20.5763C83.9197 20.3739 83.9996 20.1413 83.9996 19.8786C83.9996 19.6335 83.9268 19.4276 83.7812 19.2607C83.6392 19.0937 83.4297 18.9517 83.1527 18.8345C82.8793 18.7173 82.5437 18.6108 82.146 18.5149L80.9581 18.2166C80.0384 17.9929 79.3121 17.6431 78.7795 17.1673C78.2468 16.6914 77.9822 16.0504 77.9858 15.2443C77.9822 14.5838 78.158 14.0067 78.5131 13.5131C78.8718 13.0195 79.3636 12.6342 79.9886 12.3572C80.6136 12.0803 81.3239 11.9418 82.1193 11.9418C82.929 11.9418 83.6357 12.0803 84.2393 12.3572C84.8466 12.6342 85.3189 13.0195 85.6562 13.5131C85.9936 14.0067 86.1676 14.5785 86.1783 15.2283H83.9677ZM87.4633 13.9925V12.0909H96.4229V13.9925H93.083V23H90.8032V13.9925H87.4633Z" fill="#FFC188"/>
<path d="M63.4929 31.7827C63.4588 31.4389 63.3125 31.1719 63.054 30.9815C62.7955 30.7912 62.4446 30.696 62.0014 30.696C61.7003 30.696 61.446 30.7386 61.2386 30.8239C61.0313 30.9062 60.8722 31.0213 60.7614 31.169C60.6534 31.3168 60.5994 31.4844 60.5994 31.6719C60.5938 31.8281 60.6264 31.9645 60.6974 32.081C60.7713 32.1974 60.8722 32.2983 61 32.3835C61.1278 32.4659 61.2756 32.5384 61.4432 32.6009C61.6108 32.6605 61.7898 32.7116 61.9801 32.7543L62.7642 32.9418C63.1449 33.027 63.4943 33.1406 63.8125 33.2827C64.1307 33.4247 64.4063 33.5994 64.6392 33.8068C64.8722 34.0142 65.0526 34.2585 65.1804 34.5398C65.3111 34.821 65.3778 35.1435 65.3807 35.5071C65.3778 36.0412 65.2415 36.5043 64.9716 36.8963C64.7045 37.2855 64.3182 37.5881 63.8125 37.804C63.3097 38.017 62.7031 38.1236 61.9929 38.1236C61.2884 38.1236 60.6747 38.0156 60.152 37.7997C59.6321 37.5838 59.2259 37.2642 58.9332 36.8409C58.6435 36.4148 58.4915 35.8878 58.4773 35.2599H60.2628C60.2827 35.5526 60.3665 35.7969 60.5142 35.9929C60.6648 36.1861 60.8651 36.3324 61.1151 36.4318C61.3679 36.5284 61.6534 36.5767 61.9716 36.5767C62.2841 36.5767 62.5554 36.5312 62.7855 36.4403C63.0185 36.3494 63.1989 36.223 63.3267 36.0611C63.4545 35.8991 63.5185 35.7131 63.5185 35.5028C63.5185 35.3068 63.4602 35.142 63.3438 35.0085C63.2301 34.875 63.0625 34.7614 62.8409 34.6676C62.6222 34.5739 62.3537 34.4886 62.0355 34.4119L61.0852 34.1733C60.3494 33.9943 59.7685 33.7145 59.3423 33.3338C58.9162 32.9531 58.7045 32.4403 58.7074 31.7955C58.7045 31.267 58.8452 30.8054 59.1293 30.4105C59.4162 30.0156 59.8097 29.7074 60.3097 29.4858C60.8097 29.2642 61.3778 29.1534 62.0142 29.1534C62.6619 29.1534 63.2273 29.2642 63.7102 29.4858C64.196 29.7074 64.5739 30.0156 64.8438 30.4105C65.1136 30.8054 65.2528 31.2628 65.2614 31.7827H63.4929ZM66.6218 29.2727H68.8974L71.3008 35.1364H71.4031L73.8065 29.2727H76.082V38H74.2923V32.3196H74.2198L71.9613 37.9574H70.7425L68.484 32.2983H68.4116V38H66.6218V29.2727ZM77.6023 29.2727H79.8778L82.2812 35.1364H82.3835L84.7869 29.2727H87.0625V38H85.2727V32.3196H85.2003L82.9418 37.9574H81.723L79.4645 32.2983H79.392V38H77.6023V29.2727ZM91.3601 38V29.2727H94.8033C95.4652 29.2727 96.0291 29.3991 96.495 29.652C96.9609 29.902 97.3161 30.25 97.5604 30.696C97.8075 31.1392 97.9311 31.6506 97.9311 32.2301C97.9311 32.8097 97.8061 33.321 97.5561 33.7642C97.3061 34.2074 96.9439 34.5526 96.4695 34.7997C95.9979 35.0469 95.4268 35.1705 94.7564 35.1705H92.5618V33.6918H94.4581C94.8132 33.6918 95.1058 33.6307 95.3359 33.5085C95.5689 33.3835 95.7422 33.2116 95.8558 32.9929C95.9723 32.7713 96.0305 32.517 96.0305 32.2301C96.0305 31.9403 95.9723 31.6875 95.8558 31.4716C95.7422 31.2528 95.5689 31.0838 95.3359 30.9645C95.103 30.8423 94.8075 30.7812 94.4496 30.7812H93.2053V38H91.3601ZM99.6261 38H97.6488L100.662 29.2727H103.039L106.048 38H104.071L101.885 31.267H101.816L99.6261 38ZM99.5025 34.5696H104.173V36.0099H99.5025V34.5696ZM114.398 29.2727V38H112.804L109.007 32.5071H108.944V38H107.098V29.2727H108.718L112.485 34.7614H112.561V29.2727H114.398ZM123.222 29.2727V38H121.629L117.832 32.5071H117.768V38H115.923V29.2727H117.542L121.309 34.7614H121.386V29.2727H123.222ZM124.747 38V29.2727H130.627V30.794H126.592V32.8736H130.325V34.3949H126.592V36.4787H130.645V38H124.747ZM132.094 38V29.2727H133.94V36.4787H137.681V38H132.094ZM143.637 31.7827C143.603 31.4389 143.457 31.1719 143.199 30.9815C142.94 30.7912 142.589 30.696 142.146 30.696C141.845 30.696 141.591 30.7386 141.383 30.8239C141.176 30.9062 141.017 31.0213 140.906 31.169C140.798 31.3168 140.744 31.4844 140.744 31.6719C140.738 31.8281 140.771 31.9645 140.842 32.081C140.916 32.1974 141.017 32.2983 141.145 32.3835C141.272 32.4659 141.42 32.5384 141.588 32.6009C141.755 32.6605 141.934 32.7116 142.125 32.7543L142.909 32.9418C143.289 33.027 143.639 33.1406 143.957 33.2827C144.275 33.4247 144.551 33.5994 144.784 33.8068C145.017 34.0142 145.197 34.2585 145.325 34.5398C145.456 34.821 145.522 35.1435 145.525 35.5071C145.522 36.0412 145.386 36.5043 145.116 36.8963C144.849 37.2855 144.463 37.5881 143.957 37.804C143.454 38.017 142.848 38.1236 142.137 38.1236C141.433 38.1236 140.819 38.0156 140.297 37.7997C139.777 37.5838 139.37 37.2642 139.078 36.8409C138.788 36.4148 138.636 35.8878 138.622 35.2599H140.407C140.427 35.5526 140.511 35.7969 140.659 35.9929C140.809 36.1861 141.01 36.3324 141.26 36.4318C141.512 36.5284 141.798 36.5767 142.116 36.5767C142.429 36.5767 142.7 36.5312 142.93 36.4403C143.163 36.3494 143.343 36.223 143.471 36.0611C143.599 35.8991 143.663 35.7131 143.663 35.5028C143.663 35.3068 143.605 35.142 143.488 35.0085C143.375 34.875 143.207 34.7614 142.985 34.6676C142.767 34.5739 142.498 34.4886 142.18 34.4119L141.23 34.1733C140.494 33.9943 139.913 33.7145 139.487 33.3338C139.061 32.9531 138.849 32.4403 138.852 31.7955C138.849 31.267 138.99 30.8054 139.274 30.4105C139.561 30.0156 139.954 29.7074 140.454 29.4858C140.954 29.2642 141.522 29.1534 142.159 29.1534C142.806 29.1534 143.372 29.2642 143.855 29.4858C144.341 29.7074 144.718 30.0156 144.988 30.4105C145.258 30.8054 145.397 31.2628 145.406 31.7827H143.637Z" fill="#D4610E"/>
<defs>
<linearGradient id="paint0_linear_0_1" x1="24.421" y1="36.357" x2="24.421" y2="15.8775" gradientUnits="userSpaceOnUse">
<stop stop-color="#F55233"/>
<stop offset="1" stop-color="#A53826"/>
</linearGradient>
<linearGradient id="paint1_linear_0_1" x1="25.2412" y1="-0.776152" x2="25.2412" y2="24.9074" gradientUnits="userSpaceOnUse">
<stop stop-color="#FCC400"/>
<stop offset="0.162" stop-color="#FBC000"/>
<stop offset="0.307" stop-color="#FBB500"/>
<stop offset="0.446" stop-color="#FBA300"/>
<stop offset="0.581" stop-color="#FA8900"/>
<stop offset="0.712" stop-color="#FA6800"/>
<stop offset="0.842" stop-color="#F93F00"/>
<stop offset="0.967" stop-color="#F81000"/>
<stop offset="1" stop-color="#F80300"/>
</linearGradient>
</defs>
</svg>
