<svg width="32" height="32" viewBox="0 0 49 38" fill="none" xmlns="http://www.w3.org/2000/svg">
<rect width="49" height="38" fill="#1E1E1E"/>
<mask id="mask0_0_1" style="mask-type:luminance" maskUnits="userSpaceOnUse" x="0" y="0" width="49" height="38">
<path d="M49 0H0V38H49V0Z" fill="white"/>
</mask>
<g mask="url(#mask0_0_1)">
<path d="M48.8419 35.2797V38H18.94C14.6388 37.9997 10.4656 36.3208 7.10621 33.2392C3.74684 30.1577 1.4011 25.8567 0.45448 21.0431C0.43472 20.9411 0.414965 20.8504 0.405085 20.7767C0.395205 20.7201 0.385323 20.6634 0.380383 20.6067H0.375446V20.6011C0.380386 20.5954 0.375446 20.5954 0.375446 20.5954V20.5841C0.369269 20.5699 0.365892 20.5545 0.365564 20.5387C0.363696 20.5365 0.362287 20.5338 0.361433 20.5308C0.360579 20.5279 0.360304 20.5248 0.360626 20.5217C0.21574 19.6753 0.113472 18.82 0.0543406 17.96C0.0197604 17.4046 0 16.8379 0 16.2712C0 16.0048 -6.02698e-07 15.7384 0.0148194 15.4777C0.111616 13.0954 0.66664 10.7671 1.64009 8.65982C2.14093 10.0789 2.72519 11.4574 3.38885 12.7857C5.70601 17.4593 8.92932 21.4586 12.8095 24.4742C13.29 24.9519 13.8132 25.3698 14.3705 25.721C14.3754 25.7267 14.3754 25.7267 14.3804 25.7267C14.7304 25.9516 15.0935 26.1485 15.4672 26.3161C16.5708 26.8261 17.7502 27.0859 18.94 27.0812H39.3225V21.7311C39.3237 20.8777 39.2358 20.0272 39.0607 19.1978V19.1808C38.8075 17.9965 38.3816 16.8698 37.801 15.8484C37.4955 15.3059 37.1465 14.7975 36.7586 14.3295C40.3686 17.2839 43.3756 21.1031 45.5716 25.5226C47.0847 28.567 48.1873 31.8567 48.8419 35.2797Z" fill="url(#paint0_linear_0_1)"/>
<path d="M48.8421 21.7289V35.2796C48.1876 31.8558 47.085 28.5654 45.5718 25.5204C43.3758 21.1007 40.3687 17.2815 36.7588 14.3272C35.8817 13.2488 34.82 12.3896 33.6402 11.8036C32.4603 11.2175 31.1878 10.9171 29.9021 10.9211H14.178C12.9419 10.922 11.7567 11.4861 10.8831 12.4894C10.0095 13.4927 9.51903 14.853 9.51958 16.2711C9.51795 17.8298 9.81128 19.3703 10.3793 20.7861C10.9474 22.202 11.7766 23.4596 12.8096 24.4719C8.92974 21.4569 5.70643 17.4585 3.38902 12.7857C2.72536 11.4574 2.1411 10.0789 1.64026 8.65981C2.84554 6.04424 4.65007 3.85557 6.85943 2.32958C9.06875 0.803588 11.5992 -0.00186125 14.178 3.22963e-06H29.9021C34.1089 -0.000605382 38.1962 1.60553 41.5192 4.56507C44.8422 7.52462 47.2118 11.6691 48.2542 16.3448C48.2618 16.3627 48.2668 16.3818 48.269 16.4015C48.6512 18.1433 48.8437 19.9327 48.8421 21.7289Z" fill="url(#paint1_linear_0_1)"/>
<g style="mix-blend-mode:multiply" opacity="0.15">
<path d="M48.842 35.2797V38C48.842 38 48.432 30.9894 39.6388 24.7553C39.535 24.6816 39.4313 24.6079 39.3226 24.5342V21.7289C39.3238 20.8755 39.2358 20.025 39.0608 19.1955V19.1785C38.8075 17.9942 38.3817 16.8675 37.8011 15.8461C37.4956 15.3037 37.1466 14.7952 36.7587 14.3272C40.3686 17.2816 43.3757 21.1008 45.5717 25.5204C47.0849 28.5655 48.1875 31.8559 48.842 35.2797Z" fill="black"/>
</g>
<g style="mix-blend-mode:multiply" opacity="0.15">
<path d="M15.4672 26.3138C15.4672 26.3138 8.39308 26.1778 0.0543406 17.96C0.0197603 17.4046 0 16.8379 0 16.2712C0 16.0048 -6.02698e-07 15.7384 0.0148194 15.4777C0.111616 13.0954 0.66664 10.7671 1.64009 8.65982C2.14093 10.0789 2.72519 11.4574 3.38885 12.7857C5.70601 17.4593 8.92932 21.4586 12.8095 24.4742C13.29 24.9519 13.8132 25.3698 14.3705 25.721C14.3754 25.7267 14.3754 25.7267 14.3804 25.7267C14.7305 25.9508 15.0936 26.147 15.4672 26.3138Z" fill="black"/>
</g>
<g style="mix-blend-mode:multiply" opacity="0.3">
<path d="M0.37639 20.5954C0.37103 20.5828 0.367416 20.5694 0.365662 20.5557C0.371025 20.5614 0.371027 20.5727 0.37639 20.584V20.5954Z" fill="black"/>
</g>
<g style="mix-blend-mode:multiply" opacity="0.3">
<path d="M46.4954 38H18.94C14.6387 37.9997 10.4656 36.3208 7.10615 33.2392C3.74676 30.1577 1.40102 25.8567 0.454401 21.0431C0.43464 20.9411 0.414885 20.8504 0.405005 20.7768C0.392251 20.7208 0.382355 20.664 0.375366 20.6067V20.6011L0.380303 20.6067C0.409943 20.7144 0.459345 20.9014 0.528504 21.1735C0.670702 21.8001 0.843884 22.417 1.04721 23.0211C1.18553 23.4121 1.29915 23.8542 1.49181 24.3076C1.68447 24.761 1.88701 25.254 2.10931 25.7754C2.36619 26.2742 2.63789 26.8012 2.92935 27.3623C3.26033 27.8837 3.57155 28.4674 3.96181 29.0172C4.35718 29.5997 4.78106 30.156 5.23142 30.6834C5.4636 30.9554 5.70072 31.2331 5.93784 31.5165C6.19966 31.7715 6.46148 32.0379 6.72824 32.3043C6.86162 32.4346 6.99006 32.5763 7.12838 32.701C7.27658 32.82 7.41984 32.9447 7.5631 33.0637C7.8595 33.3074 8.14603 33.5681 8.45725 33.8005C9.08838 34.2733 9.7414 34.7066 10.4135 35.0983C11.1063 35.5022 11.8188 35.8598 12.5476 36.1695C13.3018 36.4613 14.0685 36.7092 14.8447 36.9119C15.627 37.1102 16.4187 37.2559 17.2159 37.3483L18.4707 37.4106C18.6683 37.422 18.9103 37.439 19.0733 37.4333H19.7007C21.3754 37.439 23.05 37.4446 24.7 37.456C26.35 37.4673 27.9703 37.4843 29.5412 37.5013C32.6781 37.541 35.6125 37.6033 38.122 37.677C40.6365 37.7393 42.7261 37.8413 44.1933 37.8923C45.6604 37.9626 46.4954 38 46.4954 38Z" fill="black"/>
</g>
<g style="mix-blend-mode:overlay" opacity="0.6">
<path d="M39.7326 27.5153L39.3226 27.5323C38.5075 27.572 37.6973 27.5777 36.8822 27.6003C36.0671 27.623 35.2569 27.6287 34.4468 27.6343C33.6366 27.64 32.8215 27.6513 32.0064 27.64C31.1913 27.6287 30.3811 27.6287 29.571 27.6117C27.9457 27.5777 26.3205 27.5267 24.6952 27.4416C23.0699 27.3566 21.4447 27.2546 19.8194 27.0789H39.3226V21.7289C39.3238 20.8755 39.2359 20.025 39.0608 19.1956V19.1786C39.2482 19.8115 39.379 20.4648 39.451 21.1281C39.5202 21.8026 39.535 22.4543 39.5745 23.1174C39.5992 23.6615 39.6239 24.2112 39.6387 24.7553C39.6733 25.5317 39.698 26.3025 39.7178 27.0789L39.7326 27.5153Z" fill="white"/>
</g>
<g style="mix-blend-mode:screen" opacity="0.4">
<path d="M48.2541 16.3448C48.1898 16.1578 48.0021 15.5797 47.7304 14.7013C47.5131 14.1742 47.2957 13.5224 46.9697 12.8197C46.8017 12.4683 46.6239 12.0943 46.4361 11.7032C46.2484 11.3122 46.0064 10.9324 45.7841 10.5187C45.5453 10.0911 45.2863 9.67864 45.0085 9.28322C44.8701 9.07353 44.7269 8.86383 44.5836 8.64847C44.4255 8.44444 44.2675 8.24042 44.1094 8.03072C43.9513 7.82103 43.7833 7.61133 43.6203 7.39597C43.4375 7.19761 43.2548 6.99925 43.072 6.79523C42.8892 6.5912 42.7064 6.38717 42.5187 6.18315C42.3211 5.99045 42.1186 5.79776 41.916 5.60506C41.7135 5.41237 41.5109 5.20835 41.2985 5.02699C41.0861 4.84564 40.8589 4.66994 40.6366 4.48858C40.2018 4.11453 39.7276 3.80849 39.2534 3.47978C38.2882 2.83373 37.2747 2.28751 36.2251 1.84756C35.6965 1.62654 35.1531 1.45652 34.6246 1.25817C34.0812 1.11648 33.5378 0.969122 32.9944 0.844439C32.451 0.770762 31.9273 0.663087 31.379 0.600746C30.8356 0.56674 30.2576 0.515737 29.7586 0.498735C27.5949 0.459063 25.5794 0.396706 23.8504 0.323029C22.1214 0.260688 20.6838 0.158689 19.6761 0.107683C18.6683 0.0566758 18.0903 1.72901e-07 18.0903 1.72901e-07H29.9019C34.1087 -0.000608436 38.196 1.60552 41.519 4.56506C44.842 7.52462 47.2116 11.6691 48.2541 16.3448Z" fill="white"/>
</g>
<g style="mix-blend-mode:multiply" opacity="0.3">
<path d="M49.0002 36.6455L48.8421 35.9087L48.7136 35.3137C48.2797 33.2418 47.6777 31.2211 46.9155 29.2779C46.545 28.3031 46.13 27.3566 45.6854 26.4272C45.4631 25.9568 45.226 25.509 44.9839 25.05C44.7419 24.5909 44.4949 24.1602 44.2281 23.7238C43.1895 21.9709 42.0121 20.3318 40.7108 18.8272C40.0686 18.0734 39.382 17.365 38.6854 16.6792C38.394 16.3958 38.1025 16.1181 37.8012 15.8461C37.4957 15.3037 37.1467 14.7952 36.7588 14.3272C35.8817 13.2488 34.82 12.3897 33.6402 11.8036C32.4603 11.2175 31.1878 10.9171 29.9021 10.9211H14.178C12.9419 10.922 11.7567 11.4862 10.8831 12.4895C10.0095 13.4928 9.51903 14.8531 9.51958 16.2712C9.51794 17.8298 9.81128 19.3703 10.3793 20.7862C10.9474 22.2021 11.7766 23.4596 12.8096 24.4719C13.2901 24.9496 13.8134 25.3675 14.3707 25.7187C13.7549 25.5003 13.1669 25.1896 12.6219 24.7949C11.3793 23.7972 10.2006 22.6987 9.09473 21.5078C8.54639 20.9128 8.00793 20.295 7.49911 19.6546C6.99029 19.0142 6.50617 18.3454 6.04181 17.6653C5.11728 16.2982 4.28179 14.8548 3.54216 13.3468C2.7999 11.8454 2.1639 10.278 1.64026 8.65982C2.24443 10.2324 2.94606 11.7533 3.73976 13.2108C4.52513 14.6663 5.40356 16.053 6.36785 17.3593C6.84703 18.0167 7.35585 18.6458 7.86961 19.2579C8.38337 19.87 8.92183 20.4594 9.47511 21.0318C9.82586 21.3945 10.1914 21.7402 10.557 22.0859C10.2134 21.4582 9.92703 20.7916 9.70236 20.0967C9.39899 19.187 9.20776 18.2333 9.13425 17.263C9.0231 16.2718 9.10753 15.2646 9.38125 14.3159C9.67672 13.3507 10.1875 12.4911 10.8627 11.8229C11.5379 11.1547 12.354 10.7011 13.2295 10.5074C13.4477 10.4572 13.6691 10.4269 13.8915 10.4167C14.0002 10.4111 14.0693 10.3997 14.2175 10.394H14.5189L15.7341 10.3884L18.1646 10.377L23.0206 10.3544L27.8767 10.377C28.6918 10.3884 29.4772 10.377 30.322 10.3997C31.171 10.4438 32.0114 10.6153 32.8216 10.9098C34.4336 11.4921 35.8881 12.5401 37.0453 13.9532C37.8012 14.5823 38.5273 15.2454 39.2338 15.9481C39.9473 16.6591 40.6283 17.412 41.274 18.2037C42.5702 19.7819 43.7377 21.4931 44.7616 23.3157C45.0185 23.7635 45.2655 24.2395 45.5026 24.6986C45.7398 25.1577 45.9719 25.6394 46.1844 26.1211C46.6191 27.0789 47.0192 28.0537 47.3749 29.0568C47.9369 30.6781 48.3926 32.3451 48.7383 34.0442C48.768 32.4063 48.8026 30.7741 48.8421 29.1362C48.8964 31.1821 48.9409 33.2337 48.9755 35.2797L49.0002 36.6455Z" fill="black"/>
</g>
</g>
<defs>
<linearGradient id="paint0_linear_0_1" x1="24.421" y1="36.357" x2="24.421" y2="15.8775" gradientUnits="userSpaceOnUse">
<stop stop-color="#F55233"/>
<stop offset="1" stop-color="#A53826"/>
</linearGradient>
<linearGradient id="paint1_linear_0_1" x1="25.2412" y1="-0.776152" x2="25.2412" y2="24.9074" gradientUnits="userSpaceOnUse">
<stop stop-color="#FCC400"/>
<stop offset="0.162" stop-color="#FBC000"/>
<stop offset="0.307" stop-color="#FBB500"/>
<stop offset="0.446" stop-color="#FBA300"/>
<stop offset="0.581" stop-color="#FA8900"/>
<stop offset="0.712" stop-color="#FA6800"/>
<stop offset="0.842" stop-color="#F93F00"/>
<stop offset="0.967" stop-color="#F81000"/>
<stop offset="1" stop-color="#F80300"/>
</linearGradient>
</defs>
</svg>
